<svg width="28" height="28" viewBox="0 0 28 28" fill="none" xmlns="http://www.w3.org/2000/svg">
<path fill-rule="evenodd" clip-rule="evenodd" d="M14 28C21.732 28 28 21.732 28 14C28 6.26801 21.732 0 14 0C6.26801 0 0 6.26801 0 14C0 21.732 6.26801 28 14 28ZM14 28C10.6863 28 8 25.3137 8 22C8 18.6863 10.6863 16 14 16C17.3137 16 20 18.6863 20 22C20 25.3137 17.3137 28 14 28ZM14 28C18.4183 28 22 24.4183 22 20C22 15.5817 18.4183 12 14 12C9.58172 12 6 15.5817 6 20C6 24.4183 9.58172 28 14 28ZM26 16C26 22.6274 20.6274 28 14 28C19.5228 28 24 23.5228 24 18C24 12.4772 19.5228 8 14 8C8.47715 8 4 12.4772 4 18C4 23.5228 8.47715 28 14 28C7.37258 28 2 22.6274 2 16C2 9.37258 7.37258 4 14 4C20.6274 4 26 9.37258 26 16Z" fill="#3A86FF"/>
</svg>
